<?xml version="1.0" encoding="utf-8"?>
<!-- Generator: Adobe Illustrator 24.0.1, SVG Export Plug-In . SVG Version: 6.00 Build 0)  -->
<svg version="1.1" id="Layer_1" xmlns="http://www.w3.org/2000/svg" xmlns:xlink="http://www.w3.org/1999/xlink" x="0px" y="0px"
	 viewBox="0 0 200 50" style="enable-background:new 0 0 200 50;" xml:space="preserve">
<style type="text/css">
	.st0{fill:#06B6D4;}
</style>
<g>
	<g>
		<path class="st0" d="M22.57,38.25h5.14c1.19,0,2.25,0.22,3.17,0.67c0.92,0.45,1.64,1.08,2.14,1.89c0.51,0.82,0.76,1.78,0.76,2.87
			c0,1.1-0.25,2.06-0.76,2.87c-0.51,0.82-1.22,1.45-2.14,1.89c-0.92,0.45-1.98,0.67-3.17,0.67h-5.14V38.25z M27.59,46.66
			c0.93,0,1.68-0.26,2.24-0.79c0.56-0.53,0.85-1.26,0.85-2.19s-0.28-1.66-0.85-2.19c-0.56-0.53-1.31-0.79-2.24-0.79h-1.94v5.96
			H27.59z"/>
		<path class="st0" d="M37.14,38.25h3.08v10.87h-3.08V38.25z"/>
		<path class="st0" d="M51.43,43.45h2.72v4.5c-0.62,0.44-1.34,0.79-2.14,1.02s-1.62,0.36-2.42,0.36c-1.14,0-2.16-0.24-3.07-0.72
			s-1.63-1.15-2.14-2.01c-0.52-0.86-0.78-1.83-0.78-2.92s0.26-2.06,0.78-2.92c0.52-0.86,1.24-1.53,2.16-2.01
			c0.92-0.48,1.96-0.72,3.12-0.72c1.01,0,1.93,0.17,2.73,0.51c0.81,0.34,1.48,0.83,2.02,1.48l-1.96,1.77
			c-0.74-0.81-1.62-1.21-2.64-1.21c-0.93,0-1.68,0.28-2.25,0.85c-0.57,0.56-0.85,1.32-0.85,2.26c0,0.6,0.13,1.14,0.39,1.61
			c0.26,0.47,0.62,0.84,1.09,1.1c0.47,0.26,1,0.4,1.6,0.4c0.59,0,1.14-0.12,1.66-0.36V43.45z"/>
		<path class="st0" d="M57.84,38.25h3.08v10.87h-3.08V38.25z"/>
		<path class="st0" d="M67.16,40.69h-3.34v-2.44h9.74v2.44h-3.32v8.43h-3.08V40.69z"/>
		<path class="st0" d="M83.19,47.01h-4.6l-0.85,2.11H74.6l4.8-10.87h3.03l4.81,10.87h-3.2L83.19,47.01z M82.29,44.74l-1.4-3.48
			l-1.4,3.48H82.29z"/>
		<path class="st0" d="M89.85,38.25h3.08v8.43h5.19v2.44h-8.26V38.25z"/>
		<path class="st0" d="M108.58,49.01c-0.83-0.22-1.5-0.51-2.02-0.87l1.01-2.27c0.49,0.32,1.05,0.58,1.69,0.78
			c0.64,0.2,1.27,0.29,1.89,0.29c1.18,0,1.77-0.29,1.77-0.89c0-0.31-0.17-0.54-0.5-0.69c-0.34-0.15-0.88-0.31-1.62-0.47
			c-0.82-0.18-1.5-0.37-2.05-0.57c-0.55-0.2-1.02-0.53-1.41-0.97c-0.39-0.44-0.59-1.04-0.59-1.8c0-0.66,0.18-1.26,0.54-1.79
			c0.36-0.53,0.9-0.96,1.62-1.27c0.72-0.31,1.6-0.47,2.65-0.47c0.71,0,1.42,0.08,2.11,0.24c0.69,0.16,1.3,0.4,1.83,0.71l-0.95,2.28
			c-1.04-0.56-2.04-0.84-3.01-0.84c-0.61,0-1.06,0.09-1.34,0.27c-0.28,0.18-0.42,0.42-0.42,0.71c0,0.29,0.17,0.51,0.5,0.65
			c0.33,0.15,0.86,0.3,1.6,0.45c0.83,0.18,1.51,0.36,2.06,0.57s1.01,0.52,1.41,0.96c0.4,0.44,0.6,1.04,0.6,1.79
			c0,0.65-0.18,1.24-0.54,1.77c-0.36,0.53-0.91,0.95-1.63,1.27s-1.6,0.47-2.64,0.47C110.26,49.34,109.41,49.23,108.58,49.01z"/>
		<path class="st0" d="M121.27,40.69h-3.34v-2.44h9.74v2.44h-3.32v8.43h-3.08V40.69z"/>
		<path class="st0" d="M131.63,48.02c-0.9-0.88-1.34-2.13-1.34-3.74v-6.03h3.08v5.93c0,1.74,0.69,2.61,2.07,2.61
			c1.37,0,2.05-0.87,2.05-2.61v-5.93h3.03v6.03c0,1.61-0.45,2.86-1.34,3.74s-2.15,1.32-3.77,1.32S132.53,48.9,131.63,48.02z"/>
		<path class="st0" d="M144.33,38.25h5.14c1.19,0,2.25,0.22,3.17,0.67c0.92,0.45,1.64,1.08,2.14,1.89c0.51,0.82,0.76,1.78,0.76,2.87
			c0,1.1-0.25,2.06-0.76,2.87c-0.51,0.82-1.22,1.45-2.14,1.89c-0.92,0.45-1.98,0.67-3.17,0.67h-5.14V38.25z M149.35,46.66
			c0.93,0,1.68-0.26,2.24-0.79c0.56-0.53,0.85-1.26,0.85-2.19s-0.28-1.66-0.85-2.19s-1.31-0.79-2.24-0.79h-1.94v5.96H149.35z"/>
		<path class="st0" d="M158.9,38.25h3.08v10.87h-3.08V38.25z"/>
		<path class="st0" d="M168.29,48.6c-0.92-0.49-1.64-1.16-2.16-2.02c-0.52-0.86-0.78-1.83-0.78-2.9c0-1.08,0.26-2.04,0.78-2.9
			c0.52-0.86,1.24-1.53,2.16-2.02c0.92-0.49,1.95-0.73,3.1-0.73s2.18,0.24,3.1,0.73c0.92,0.49,1.64,1.16,2.16,2.02
			s0.78,1.83,0.78,2.9c0,1.08-0.26,2.04-0.78,2.9s-1.24,1.53-2.16,2.02c-0.92,0.49-1.95,0.73-3.1,0.73S169.2,49.09,168.29,48.6z
			 M172.88,46.4c0.44-0.26,0.8-0.62,1.06-1.09c0.26-0.47,0.39-1.01,0.39-1.62c0-0.61-0.13-1.15-0.39-1.62
			c-0.26-0.47-0.61-0.84-1.06-1.09c-0.45-0.26-0.94-0.39-1.49-0.39s-1.05,0.13-1.49,0.39s-0.8,0.62-1.06,1.09
			c-0.26,0.47-0.39,1.01-0.39,1.62c0,0.61,0.13,1.15,0.39,1.62c0.26,0.47,0.61,0.84,1.06,1.09s0.94,0.39,1.49,0.39
			S172.43,46.66,172.88,46.4z"/>
	</g>
	<g>
		<path class="st0" d="M39.46,35.67H25.22c-0.74,0-1.37-0.25-1.87-0.76c-0.5-0.5-0.76-1.13-0.76-1.87v-13.6
			c0.64,0.74,1.33,1.3,2.07,1.67c1.22,0.69,2.47,1.03,3.74,1.03h0.72v10.82h6.44V3.53h-0.08V0.82h3.98c0.69,0,1.29,0.25,1.79,0.76
			C41.75,2.08,42,2.71,42,3.45v29.6c0,0.74-0.25,1.37-0.76,1.87C40.74,35.42,40.15,35.67,39.46,35.67z"/>
		<path class="st0" d="M61.34,35.67H47.09c-0.74,0-1.35-0.25-1.83-0.76c-0.48-0.5-0.72-1.13-0.72-1.87V3.37
			c0-0.74,0.25-1.38,0.76-1.91c0.5-0.53,1.13-0.8,1.87-0.8h3.82v32.3h6.44V2.34h-0.08V0.66h3.82c0.74,0,1.38,0.27,1.91,0.8
			c0.53,0.53,0.8,1.17,0.8,1.91v29.68c0,0.74-0.25,1.37-0.76,1.87C62.62,35.42,62.02,35.67,61.34,35.67z"/>
		<path class="st0" d="M87.91,35.67l-1.59-1.27c-1.06-0.85-2.71-1.78-4.93-2.79L72.71,7.43v19.33h0.08v4.85
			c-2.23,1.01-3.87,1.94-4.93,2.79l-1.59,1.27V3.45c0-0.74,0.25-1.37,0.76-1.87c0.5-0.5,1.1-0.76,1.79-0.76h3.9l8.75,22.91V0.82h3.9
			c0.69,0,1.29,0.25,1.79,0.76c0.5,0.5,0.76,1.13,0.76,1.87V35.67z"/>
		<path class="st0" d="M109.71,35.67l-1.59-1.27c-1.06-0.85-2.71-1.78-4.93-2.79v-4.85h0.08v-7.24h-6.44v7.24h0.08v4.85
			c-2.23,1.01-3.87,1.94-4.93,2.79l-1.59,1.27V3.45c0-0.74,0.25-1.37,0.76-1.87c0.5-0.5,1.1-0.76,1.79-0.76h14.24
			c0.69,0,1.29,0.25,1.79,0.76c0.5,0.5,0.76,1.13,0.76,1.87V35.67z M103.26,16.89V3.53h-6.44v13.37H103.26z"/>
		<path class="st0" d="M124.82,36.7l-0.16-0.56c-0.16-0.32-0.45-0.74-0.88-1.27c-1.06-1.38-2.76-2.49-5.09-3.34V18.65h-3.9
			c-0.69,0-1.27-0.24-1.75-0.72c-0.48-0.48-0.72-1.06-0.72-1.75V3.29c0-0.69,0.25-1.3,0.76-1.83c0.5-0.53,1.13-0.8,1.87-0.8h3.74
			v1.67h-0.08v13.68h6.29V2.34h-0.08V0.66h3.82c0.69,0,1.29,0.27,1.79,0.8c0.5,0.53,0.76,1.14,0.76,1.83v12.89
			c0,0.69-0.24,1.27-0.72,1.75c-0.48,0.48-1.06,0.72-1.75,0.72h-3.9V36.7z"/>
		<path class="st0" d="M150.6,35.59h-14.24c-0.69,0-1.29-0.25-1.79-0.76s-0.76-1.13-0.76-1.87V3.45c0-0.74,0.25-1.37,0.76-1.87
			c0.5-0.5,1.1-0.76,1.79-0.76h14.24c0.74,0,1.35,0.25,1.83,0.76c0.48,0.5,0.72,1.13,0.72,1.87v9.47c-0.58-0.74-1.25-1.3-1.99-1.67
			c-1.27-0.69-2.52-1.03-3.74-1.03h-0.72V3.53h-6.44v13.37h7.24v2.63h-7.24v13.37h6.44v-7.96c2.71-0.32,4.67-1.06,5.89-2.23
			l0.56-0.56v10.82c0,0.74-0.24,1.37-0.72,1.87S151.34,35.59,150.6,35.59z"/>
		<path class="st0" d="M169.22,35.59h-10.9c-0.74,0-1.35-0.25-1.83-0.76s-0.72-1.13-0.72-1.87V3.45c0-0.74,0.24-1.37,0.72-1.87
			c0.48-0.5,1.09-0.76,1.83-0.76h10.9c2.28,0,4.22,0.81,5.81,2.43c1.59,1.62,2.39,3.54,2.39,5.77V27.4c0,2.23-0.79,4.15-2.39,5.77
			C173.43,34.78,171.5,35.59,169.22,35.59z M165.56,32.89c1.48,0,2.76-0.53,3.82-1.59c1.06-1.06,1.59-2.33,1.59-3.82V8.94
			c0-1.48-0.53-2.76-1.59-3.82c-1.06-1.06-2.33-1.59-3.82-1.59h-3.34v29.36H165.56z"/>
	</g>
</g>
</svg>
